<?xml version="1.0" standalone="no"?>
<!DOCTYPE svg PUBLIC "-//W3C//DTD SVG 20010904//EN"
 "http://www.w3.org/TR/2001/REC-SVG-20010904/DTD/svg10.dtd">
<svg version="1.0" xmlns="http://www.w3.org/2000/svg"
 width="500.000000pt" height="500.000000pt" viewBox="0 0 500.000000 500.000000"
 preserveAspectRatio="xMidYMid meet">

<g transform="translate(0.000000,500.000000) scale(0.100000,-0.100000)"
fill="#000000" stroke="none">
<path d="M3077 3798 c53 -76 83 -107 99 -101 8 3 11 10 7 16 -4 6 9 0 27 -13
26 -19 32 -20 27 -7 -8 22 9 22 22 0 5 -10 13 -15 16 -11 9 9 -22 53 -38 53
-6 0 -11 10 -11 23 1 12 -2 22 -6 22 -4 0 -11 11 -14 24 -4 18 -15 25 -43 30
-61 10 -85 8 -77 -6 4 -7 -2 -5 -13 5 -35 31 -34 18 4 -35z m118 12 c4 -6 -1
-7 -11 -3 -12 4 -15 3 -10 -5 5 -8 2 -10 -9 -5 -13 5 -14 7 -3 14 17 11 26 11
33 -1z"/>
<path d="M3229 3786 c6 -7 9 -15 7 -17 -2 -2 9 -17 24 -32 18 -20 27 -24 27
-13 0 8 -4 13 -8 10 -7 -4 -25 34 -21 47 1 4 -8 9 -19 12 -15 4 -18 2 -10 -7z"/>
<path d="M1784 3754 c-18 -14 -18 -15 4 -4 12 6 22 13 22 15 0 8 -5 6 -26 -11z"/>
<path d="M3770 3686 c0 -2 8 -10 18 -17 15 -13 16 -12 3 4 -13 16 -21 21 -21
13z"/>
<path d="M2680 3676 c0 -3 14 -27 30 -53 53 -83 75 -172 75 -303 -1 -78 -7
-136 -19 -180 -26 -99 -99 -240 -165 -322 -66 -83 -151 -168 -151 -151 0 6 10
41 23 79 47 147 4 403 -87 519 -9 11 0 -14 19 -55 19 -41 37 -91 40 -110 2
-19 10 -57 15 -85 27 -126 -41 -377 -122 -453 l-25 -23 -6 104 c-5 95 -9 111
-42 173 -20 38 -58 94 -85 125 -29 34 -53 73 -60 100 -37 136 -121 200 -241
184 -47 -7 -49 -8 -49 -38 1 -45 32 -108 69 -140 38 -32 118 -57 181 -57 38 0
51 -5 72 -27 72 -77 128 -211 128 -306 0 -47 -1 -49 -14 -31 -13 17 -13 14 0
-24 19 -56 8 -100 -44 -181 -67 -103 -85 -161 -80 -266 4 -104 21 -146 100
-252 63 -85 106 -174 114 -237 6 -39 9 -45 17 -31 23 43 11 119 -35 221 -25
54 -51 116 -58 138 -27 84 -9 255 34 318 12 17 38 45 59 62 52 42 134 47 238
16 172 -52 190 -55 218 -39 25 14 26 19 26 100 l0 84 33 10 c31 9 33 13 29 41
-4 23 0 33 15 43 18 11 18 14 4 36 -24 36 -20 52 16 59 51 10 60 22 44 60 -8
18 -34 61 -60 95 -66 91 -102 231 -59 231 15 0 15 1 1 13 -12 9 -18 46 -26
152 -12 160 -35 248 -84 317 -30 42 -88 97 -88 84z"/>
<path d="M1583 3627 c-166 -128 -268 -242 -368 -412 -67 -113 -116 -235 -120
-300 -3 -47 -1 -43 34 56 83 234 241 464 422 615 44 36 79 68 79 70 0 6 -2 5
-47 -29z"/>
<path d="M3837 3649 c7 -7 15 -10 18 -7 3 3 -2 9 -12 12 -14 6 -15 5 -6 -5z"/>
<path d="M3840 3613 c0 -12 3 -13 14 -4 10 8 16 9 21 1 3 -5 0 -10 -7 -10 -8
0 -6 -5 5 -11 10 -6 21 -8 24 -5 4 3 1 6 -5 6 -6 0 -9 7 -6 15 4 8 2 15 -2 16
-5 0 -17 2 -26 4 -11 2 -18 -3 -18 -12z"/>
<path d="M2150 3510 c0 -85 45 -142 140 -175 24 -9 53 -23 65 -32 11 -10 14
-11 8 -3 -7 8 -13 35 -13 61 0 112 -72 199 -165 199 l-35 0 0 -50z"/>
<path d="M3050 3303 c0 -33 100 -146 116 -130 10 10 -25 64 -65 100 -41 37
-51 43 -51 30z"/>
<path d="M2248 3263 c-22 -5 -23 -25 -3 -63 30 -58 145 -91 145 -41 0 23 -35
78 -57 89 -25 13 -65 20 -85 15z"/>
<path d="M3094 3072 c8 -15 22 -34 32 -43 25 -22 85 -52 91 -45 9 9 -78 94
-108 105 l-29 10 14 -27z"/>
<path d="M3232 3055 c12 -24 23 -43 26 -41 4 5 -36 86 -43 86 -3 0 5 -20 17
-45z"/>
<path d="M2569 3035 c-14 -8 -31 -27 -38 -42 -13 -34 -22 -152 -9 -129 5 9 15
16 23 16 7 0 30 15 50 34 33 32 36 38 33 83 -3 53 -16 62 -59 38z"/>
<path d="M2261 3010 c-31 -52 -25 -101 19 -157 l19 -25 21 34 c30 50 27 110
-9 150 l-29 32 -21 -34z"/>
<path d="M3265 2985 c43 -135 50 -319 17 -446 -94 -352 -412 -586 -772 -566
-58 4 -122 11 -143 17 -39 12 -58 7 -41 -9 5 -5 47 -17 94 -27 256 -51 555 57
726 264 114 138 174 308 174 491 0 104 -25 239 -51 279 -9 15 -10 14 -4 -3z"/>
<path d="M3431 2874 c-39 -44 -69 -109 -57 -121 15 -16 93 86 111 145 10 35
-10 26 -54 -24z"/>
<path d="M1081 2844 c0 -11 3 -14 6 -6 3 7 2 16 -1 19 -3 4 -6 -2 -5 -13z"/>
<path d="M3183 2795 c8 -52 54 -146 76 -153 22 -7 6 72 -27 137 -37 73 -57 80
-49 16z"/>
<path d="M2040 2820 c0 -6 6 -26 14 -45 20 -47 79 -74 143 -66 20 2 -4 64 -37
94 -24 21 -40 27 -75 27 -25 0 -45 -5 -45 -10z"/>
<path d="M1060 2763 c-6 -32 -13 -121 -15 -198 l-3 -140 7 130 c5 72 14 159
20 194 15 80 8 91 -9 14z"/>
<path d="M3434 2550 c-40 -20 -122 -95 -113 -104 13 -13 86 22 130 62 70 63
63 81 -17 42z"/>
<path d="M3121 2527 c-20 -51 -7 -197 18 -197 23 0 28 147 7 195 l-14 30 -11
-28z"/>
<path d="M3983 2425 c0 -38 2 -53 4 -32 2 20 2 52 0 70 -2 17 -4 1 -4 -38z"/>
<path d="M1836 2440 c21 -79 117 -223 197 -295 94 -85 80 -49 -20 51 -69 69
-100 110 -136 179 -26 50 -45 79 -41 65z"/>
<path d="M2948 2251 c-37 -43 -74 -130 -65 -154 7 -21 65 51 87 110 30 81 23
96 -22 44z"/>
<path d="M3165 2158 c-16 -6 -38 -17 -48 -23 -17 -12 -16 -14 13 -20 43 -9
116 2 162 26 21 11 38 22 38 24 0 9 -135 3 -165 -7z"/>
<path d="M2635 2141 c-35 -21 -79 -70 -101 -113 -15 -29 -15 -30 8 -22 37 11
77 46 109 93 43 65 38 76 -16 42z"/>
<path d="M3951 2144 c0 -11 3 -14 6 -6 3 7 2 16 -1 19 -3 4 -6 -2 -5 -13z"/>
<path d="M3941 2109 c-2 -34 -55 -178 -102 -274 -61 -127 -128 -227 -223 -337
-85 -98 -88 -128 -4 -40 106 111 200 255 263 403 38 87 79 234 71 253 -2 6 -5
4 -5 -5z"/>
<path d="M2795 1951 c-19 -8 -19 -8 4 -20 33 -18 129 -25 171 -13 l35 10 -37
16 c-39 17 -138 21 -173 7z"/>
<path d="M1294 1531 c0 -11 6 -17 13 -14 7 3 13 1 13 -5 0 -5 11 -12 25 -15
25 -4 25 -4 8 13 -10 10 -20 16 -22 14 -2 -2 -12 3 -21 11 -14 13 -16 12 -16
-4z"/>
<path d="M1883 1392 c1 -21 8 -37 20 -44 10 -5 16 -16 13 -24 -3 -7 -2 -13 2
-11 11 3 53 -29 47 -36 -3 -4 -2 -5 2 -2 3 3 12 0 20 -6 7 -6 35 -12 63 -13
27 -1 52 -5 56 -9 18 -18 25 -4 8 16 -11 12 -26 34 -33 49 -8 15 -27 43 -43
63 -23 27 -35 34 -50 29 -13 -4 -18 -2 -14 5 4 5 -10 3 -30 -5 -19 -8 -33 -10
-29 -5 3 6 1 11 -4 11 -6 0 -11 -6 -12 -12 0 -7 -4 -4 -9 7 -7 16 -9 14 -7
-13z m55 -35 c5 -24 -15 -21 -28 4 -10 18 -9 20 7 17 10 -2 19 -11 21 -21z"/>
<path d="M3487 1368 c-31 -31 -31 -32 -2 -8 16 14 34 28 40 32 5 5 6 8 2 8 -4
0 -22 -15 -40 -32z"/>
<path d="M3397 1301 c-20 -15 -68 -48 -107 -71 -39 -23 -73 -47 -77 -53 -4 -6
11 0 33 13 73 44 183 120 189 130 10 17 0 12 -38 -19z"/>
</g>
</svg>
